# xmcd
# 
# Track frame offsets:
#     150
#     21805
#     47837
#     69990
#     95227
#     114087
#     141185
#     157265
#     175837
#     199902
# 
# Disc length: 2959
# 
# Revision: 11
# Processed by: cddbd v1.5.2PL0 Copyright (c) Steve Scherf et al.
# Submitted via: fre:ac v1.0.31
# 
DISCID=8b0b8d0a
DTITLE=BILLY JOEL - RIVER OF DREAMS (REMASTERED)
DYEAR=1993
DGENRE=Rock
TTITLE0=No Man's Land - (1998 Remaster)
TTITLE1=The Great Wall Of China - (1998 Remaster)
TTITLE2=Blonde Over Blue - (1998 Remaster)
TTITLE3=A Minor Variation - (1998 Remaster)
TTITLE4=Shades Of Grey - (1998 Remaster)
TTITLE5=All About Soul - (1998 Remaster)
TTITLE6=Lullabye (Goodnight, My Angel) - (1998 Remaster)
TTITLE7=The River Of Dreams - (1998 Remaster)
TTITLE8=Two Thousand Years - (1998 Remaster)
TTITLE9=Famous Last Words - (1998 Remaster)
EXTD=
EXTT0=
EXTT1=
EXTT2=
EXTT3=
EXTT4=
EXTT5=
EXTT6=
EXTT7=
EXTT8=
EXTT9=
PLAYORDER=
